<svg width="194" height="22" viewBox="0 0 194 22" fill="none" xmlns="http://www.w3.org/2000/svg">
<path d="M121.193 0.816895V3.42697H103.692V9.36293H118.253V12.0383H103.692V18.6928H121.193V21.3682H100.429V0.816895H121.193Z" fill="#F0EBEB"/>
<path d="M3.20068 0.816895V12.3649C3.47829 12.2942 3.74229 12.0438 3.97636 11.8696C8.79371 8.26882 13.4641 4.46121 18.2515 0.816895H22.3313L12.0815 8.93835L22.7232 21.3682H18.902L9.81161 10.9361L9.66192 10.9605L3.19524 15.9875V21.3709H0V0.819617H3.20068V0.816895Z" fill="#F0EBEB"/>
<path d="M138.367 0.816895V12.4302L153.418 0.816895H157.5L147.248 8.93835L157.889 21.3682H154.071L144.98 10.9361L144.833 10.9606L138.367 15.9847V21.3682H135.166V0.816895H138.367Z" fill="#F0EBEB"/>
<path d="M166.574 21.3681L180.318 0.490234L194 21.3681H190.44L180.223 5.64507L170.166 21.3681H166.574Z" fill="#F0EBEB"/>
<path d="M31.4077 21.3681L45.1521 0.490234L58.834 21.3681H55.274L45.0868 5.64507L35.0003 21.3681H31.4077Z" fill="#F0EBEB"/>
<path d="M87.9558 0.816895V3.49229H78.0299V21.3682H74.8972V3.49229H65.0366V0.816895H87.9558Z" fill="#F0EBEB"/>
</svg>
